<?xml version="1.0" encoding="UTF-8"?>
<svg width="36px" height="57px" viewBox="0 0 36 57" version="1.1" xmlns="http://www.w3.org/2000/svg" xmlns:xlink="http://www.w3.org/1999/xlink">
    <!-- Generator: Sketch 40.1 (33804) - http://www.bohemiancoding.com/sketch -->
    <title>1475063431_Mouse</title>
    <desc>Created with Sketch.</desc>
    <defs></defs>
    <g id="Page-1" stroke="none" stroke-width="1" fill="none" fill-rule="evenodd">
        <g id="1475063431_Mouse" transform="translate(1.000000, 0.000000)" stroke="#FFFFFF">
            <g id="Group">
                <g transform="translate(0.000000, 6.000000)" id="Shape">
                    <path d="M17,19.1 L0.1,19.1 L0.1,34.1 C0.1,42.4 6.8,49.1 15.1,49.1 L18.9,49.1 C27.2,49.1 33.9,42.4 33.9,34.1 L33.9,19.1 L17,19.1 L17,19.1 Z" stroke-width="2"></path>
                    <path d="M30.9,33.1 C30.9,39.7 25.5,45.1 18.9,45.1"></path>
                    <path d="M18.9,0.9 L17,0.9 L17,3.7 C18.3,3.7 19.4,4.8 19.4,6.1 L19.4,11.6 C19.4,12.9 18.3,14 17,14 L17,19 L33.9,19 L33.9,15.8 C33.9,7.6 27.2,0.9 18.9,0.9 L18.9,0.9 Z" stroke-width="2"></path>
                    <path d="M14.6,11.7 L14.6,6.2 C14.6,4.9 15.7,3.8 17,3.8 L17,1 L15.1,1 C6.8,1 0.1,7.7 0.1,16 L0.1,19.2 L17,19.2 L17,14.2 C15.7,14.1 14.6,13 14.6,11.7 L14.6,11.7 Z" stroke-width="2"></path>
                </g>
                <path d="M17,6.9 L17,0.9" id="Shape"></path>
            </g>
        </g>
    </g>
</svg>